<svg width="37" height="28" viewBox="0 0 37 28" fill="none" xmlns="http://www.w3.org/2000/svg">
<path d="M0.587222 3.41424C-0.195741 2.63298 -0.195741 1.36673 0.587222 0.585472C1.37031 -0.195157 2.63974 -0.195157 3.42295 0.585472L15.4512 12.5874C16.2344 13.3687 16.2344 14.6312 15.4512 15.4124L3.42295 27.4125C2.63974 28.1938 1.37031 28.1938 0.587222 27.4125C-0.195741 26.6312 -0.195741 25.3687 0.587222 24.5875L11.1968 13.9999L0.587222 3.41424ZM34.0854 24C35.1945 24 36.0905 24.8937 36.0905 26C36.0905 27.1062 35.1945 28 34.0854 28H16.0402C14.9312 28 14.0352 27.1062 14.0352 26C14.0352 24.8937 14.9312 24 16.0402 24H34.0854Z" fill="#3294F8"/>
</svg>
