<svg width="512" height="512" viewBox="0 0 512 512" fill="none" xmlns="http://www.w3.org/2000/svg">
<rect width="512" height="512" rx="40" fill="#071422"/>
<g clip-path="url(#clip0_504_44)">
<path d="M110.881 168.007C104.373 161.513 104.373 150.987 110.881 144.493C117.391 138.004 127.943 138.004 134.453 144.493L234.437 244.258C240.948 250.753 240.948 261.247 234.437 267.741L134.453 367.491C127.943 373.985 117.391 373.985 110.881 367.491C104.373 360.997 104.373 350.503 110.881 344.008L199.073 256L110.881 168.007ZM389.333 339.125C398.552 339.125 406 346.554 406 355.75C406 364.946 398.552 372.375 389.333 372.375H239.333C230.115 372.375 222.667 364.946 222.667 355.75C222.667 346.554 230.115 339.125 239.333 339.125H389.333Z" fill="#3294F8"/>
</g>
<defs>
<clipPath id="clip0_504_44">
<rect width="300" height="266" fill="white" transform="translate(106 123)"/>
</clipPath>
</defs>
</svg>
